/* XPM */
static char *_524805118839[] = {
/* columns rows colors chars-per-pixel */
"32 32 188 2 ",
"   c #000001",
".  c #00000C",
"X  c #000012",
"o  c #000C18",
"O  c #000B17",
"+  c #161513",
"@  c #1A1713",
"#  c #1D1A14",
"$  c #350000",
"%  c #390A00",
"&  c #381600",
"*  c #221D14",
"=  c #281F12",
"-  c #272015",
";  c #292215",
":  c #232218",
">  c #292619",
",  c #2B291B",
"<  c #442406",
"1  c #492D07",
"2  c #512B00",
"3  c #543505",
"4  c #56360E",
"5  c #57390B",
"6  c #4C3915",
"7  c #483518",
"8  c #46371B",
"9  c #523810",
"0  c #583F13",
"q  c #5D4216",
"w  c #5A441C",
"e  c #63400A",
"r  c #654B1B",
"t  c #6C4D1A",
"y  c #634717",
"u  c #714E14",
"i  c #6F501B",
"p  c #7A5619",
"a  c #4E4323",
"s  c #474125",
"d  c #514523",
"f  c #5B4A23",
"g  c #594D29",
"h  c #524F2F",
"j  c #58502D",
"k  c #504F31",
"l  c #4E553A",
"z  c #555C3E",
"x  c #5F5D3A",
"c  c #695629",
"v  c #675629",
"b  c #785C25",
"n  c #6A5D32",
"m  c #605D3A",
"M  c #7E6025",
"N  c #656039",
"B  c #7E6933",
"V  c #7A6E3F",
"C  c #7D6731",
"Z  c #756D41",
"A  c #777246",
"S  c #845D1D",
"D  c #8B631E",
"F  c #966A1F",
"G  c #9E6F1F",
"H  c #84652A",
"J  c #86692E",
"K  c #8C6C2C",
"L  c #926720",
"P  c #936E26",
"I  c #9D7224",
"U  c #96722A",
"Y  c #9A732A",
"T  c #896D30",
"R  c #8A753B",
"E  c #87743E",
"W  c #917635",
"Q  c #947C3F",
"!  c #997D3A",
"~  c #A37625",
"^  c #AA7B27",
"/  c #A17928",
"(  c #867A46",
")  c #957E40",
"_  c #B3842C",
"`  c #BC892B",
"'  c #AA8131",
"]  c #A8863D",
"[  c #BE8F36",
"{  c #B48838",
"}  c #E69E1F",
"|  c #C18C2B",
" . c #C9932F",
".. c #C59435",
"X. c #C29339",
"o. c #C99739",
"O. c #DC9E32",
"+. c #E69F21",
"@. c #DDA234",
"#. c #DDA63C",
"$. c #E7A224",
"%. c #E4A22E",
"&. c #E9A42B",
"*. c #E8A127",
"=. c #E4A533",
"-. c #EAA731",
";. c #ECAB35",
":. c #E0A73A",
">. c #E5AC3D",
",. c #EAAD3A",
"<. c #EDB13B",
"1. c #9A894C",
"2. c #968B53",
"3. c #988F57",
"4. c #9A9158",
"5. c #A68840",
"6. c #AC8B43",
"7. c #AB924D",
"8. c #B19245",
"9. c #B79748",
"0. c #BB9A4A",
"q. c #AA9956",
"w. c #AD9E5C",
"e. c #BCA964",
"r. c #C29943",
"t. c #C19F4D",
"y. c #C9A04B",
"u. c #DCA945",
"i. c #DFAD4B",
"p. c #DBA642",
"a. c #C9A551",
"s. c #CDAB55",
"d. c #CBAD5D",
"f. c #C1A559",
"g. c #DFB250",
"h. c #D2B057",
"j. c #E2AE49",
"k. c #E6B347",
"l. c #ECB444",
"z. c #EEB847",
"x. c #E4B24F",
"c. c #EAB64C",
"v. c #EDBA4E",
"b. c #F2BD4D",
"n. c #F0B846",
"m. c #E4B552",
"M. c #E9BC56",
"N. c #E2B75C",
"B. c #E4BB5B",
"V. c #E9B550",
"C. c #CEB465",
"Z. c #D3BB6A",
"A. c #E3BE63",
"S. c #EEC45E",
"D. c #EEC056",
"F. c #F1C156",
"G. c #F3C55C",
"H. c #F5C95E",
"J. c #CCC075",
"K. c #CDC57C",
"L. c #EAC362",
"P. c #E3C169",
"I. c #EBCA6B",
"U. c #E7C365",
"Y. c #F4CA61",
"T. c #F5CC65",
"R. c #F5D36F",
"E. c #F8D26A",
"W. c #E5CB74",
"Q. c #E9CD72",
"!. c #E6CF7A",
"~. c #EBD27A",
"^. c #E8D078",
"/. c #F3D474",
"(. c #F3D779",
"). c #F5DB7D",
"_. c #F9DB7A",
"`. c #FAD772",
"'. c #F2DC80",
"]. c #FAE88C",
"[. c #F8E387",
"{. c #FBED92",
"}. c #F4EE98",
"|. c #FEF196",
" X c #FEF79D",
".X c #FFF89D",
"XX c #FFFAA1",
"oX c None",
/* pixels */
"oXoXoXoXoXoXoXoXoXoXoXoXoX(.^.W.!.^.(.oXoXoXoXoXoXoXoXoXoXoXoXoX",
"oXoXoXoXoXoXoXoXoXoXL.s.8.K i 5 5 r H 6.a.B.oXoXoXoXoXoXoXoXoXoX",
"oXoXoXoXoXoXoXoXB.0.f                     4 { x.oXoXoXoXoXoXoXoX",
"oXoXoXoXoXoXH.h.d     X j R ] 8.8.] K 3     . < o.b.oXoXoXoXoXoX",
"oXoXoXoXoXY.7.    o ( a.m.F.G.E.`._._.~.C.J   X   ~ l.oXoXoXoXoX",
"oXoXoXoXL.1.    z d.v.l.b.F.S.U.I.(.].|. X{.C.2 . . L l.oXoXoXoX",
"oXoXoXY.w.    A N.;.<.k.o.W c d d N 2.J.}. X{.Q.p   . ~ l.oXoXoX",
"oXoXoXZ.    V c.$.<...w       .         N K.].[.I.p . .  .oXoXoX",
"oXoXP.z   h j.$.;./   . - - * * # * > ,     w.)./.B.2 X 8 O.oXoX",
"oXoXe.  o r.*.-.I   ; * + + + + @ + + + : >   7.R.Y.o.  . _ oXoX",
"oXB.m   C =.&.|   = @ + * * * : : : * # + @ ,   a.Y.M.S . w @.oX",
"oXs.. . [ *.%.q . * + # X .         . X @ + *   f M.b...  X ..oX",
"oX7.  w O.&.`   = + # X t U Q 3.4.) U q X # + ;   r.b.:.9   ' oX",
"c.R   b %.-.D . = + * X G oXoXoXoXoXoXD X = + *   K z.<.S   J >.",
"j.n   I &.=.r . # @ # X F oXoXoXoXoXoXS . * + : . r >.;.~   c j.",
"p.g   ~ ;.@.6 . # + * X F oXoXoXoXoXoXS X * + # . 6 :.;.^   d #.",
"#.f   ~ ;.:.6 . # + * X P oXoXoXoXoXoXS X * + # . 6 :.;.^   g u.",
">.c   P ;.>.v . * + # X F oXoXoXoXoXoXS X * + * . y =.&.I   n j.",
">.J   p ;.z.K   = + * X G oXoXoXoXoXoXD X = + = . D &.%.H   E V.",
"oX' . 1 @.b.o.  - + * X i Y ) 4.4.) Y q X # + =   ` &.@.d   7.oX",
"oX...   ` b.M.f   * + # X .         X X # + * . 0 =.%.[ . . d.oX",
"oX=.w . u c.H.a.  > + + # * * : : * * # + + :   | *.>.T   x A.oX",
"oXoX_ X   [ Y.T.7.  > : + + + @ + + + + * =   I -.*.r.o   e.oXoX",
"oXoX@.7 X & g././.q.    , , : # # * > - .   / ;.} i.k   l P.oXoX",
"oXoXoX .. X e L.).[.Z.x                 w X.<.$.m.Z     Z.oXoXoX",
"oXoXoX<.~ . . e A.]. X}.K.2.N d a v W o.k.<.;.N.A     q.G.oXoXoX",
"oXoXoXoX>.F . X $ f.].XX X{.'.^.I.L.G.F.z.v.f.l     1.S.oXoXoXoX",
"oXoXoXoXoXl.~   o   i f.!.)._.`.E.Y.D.g.t.V X     7.S.oXoXoXoXoX",
"oXoXoXoXoXoXb.o.< . .   % b ! ] 5.] C s .     8 s.H.oXoXoXoXoXoX",
"oXoXoXoXoXoXoXoXj.{ 4                     w 9.B.oXoXoXoXoXoXoXoX",
"oXoXoXoXoXoXoXoXoXoXM.t.] H y 3 3 r J 6.s.U.oXoXoXoXoXoXoXoXoXoX",
"oXoXoXoXoXoXoXoXoXoXoXoXoX/.W.W.!.~.).oXoXoXoXoXoXoXoXoXoXoXoXoX"
};
