/* XPM */
static char *_524805133053[] = {
/* columns rows colors chars-per-pixel */
"64 64 230 2 ",
"   c #000001",
".  c #00010B",
"X  c #030B0E",
"o  c #0C0C0E",
"O  c #0C0207",
"+  c #120001",
"@  c #160809",
"#  c #14120F",
"$  c #1B160E",
"%  c #1E180F",
"&  c #000112",
"*  c #010A11",
"=  c #0A0D11",
"-  c #000219",
";  c #000C18",
":  c #011314",
">  c #0D1212",
",  c #001419",
"<  c #041919",
"1  c #0D1917",
"2  c #161512",
"3  c #1A1712",
"4  c #1D1A13",
"5  c #161915",
"6  c #100F11",
"7  c #240000",
"8  c #2E0000",
"9  c #370000",
"0  c #251B0E",
"q  c #291E0E",
"w  c #271405",
"e  c #371800",
"r  c #231C12",
"t  c #291F13",
"y  c #16251C",
"u  c #0A2019",
"i  c #2C210E",
"p  c #262115",
"a  c #2A2214",
"s  c #242218",
"d  c #2A2619",
"f  c #2C291A",
"g  c #272E1F",
"h  c #312C1B",
"j  c #362B15",
"k  c #3D331C",
"l  c #31301E",
"z  c #31250F",
"x  c #293324",
"c  c #3D3B25",
"v  c #333522",
"b  c #2C2F20",
"n  c #440000",
"m  c #441800",
"M  c #5A2900",
"N  c #5B3605",
"B  c #462F13",
"V  c #4D3A15",
"C  c #493716",
"Z  c #5E3F12",
"A  c #482D0A",
"S  c #653801",
"D  c #3D432C",
"F  c #5D4218",
"G  c #5A4419",
"H  c #734401",
"J  c #794B04",
"K  c #7C5209",
"L  c #654817",
"P  c #73541C",
"I  c #6B4D14",
"U  c #4B472B",
"Y  c #534725",
"T  c #5E532C",
"R  c #595533",
"E  c #4C5236",
"W  c #634E20",
"Q  c #675529",
"!  c #755C27",
"~  c #665C33",
"^  c #68623B",
"/  c #7B6C3A",
"(  c #76622F",
")  c #6A6C46",
"_  c #716E44",
"`  c #7D7F52",
"'  c #70734A",
"]  c #825407",
"[  c #825B1C",
"{  c #9B6504",
"}  c #89621B",
"|  c #9C6E19",
" . c #A7731A",
".. c #A16C11",
"X. c #8C6722",
"o. c #9D7325",
"O. c #967A38",
"+. c #876F34",
"@. c #A27523",
"#. c #AD7B24",
"$. c #A47B2A",
"%. c #B27E23",
"&. c #A27C30",
"*. c #897B46",
"=. c #907D43",
"-. c #BA801E",
";. c #BC8425",
":. c #BD8A2C",
">. c #B7842A",
",. c #A88538",
"<. c #B88C36",
"1. c #BF943B",
"2. c #DF9713",
"3. c #DF9508",
"4. c #E29701",
"5. c #E1990B",
"6. c #E29A1B",
"7. c #E19915",
"8. c #E5A01E",
"9. c #C38D2B",
"0. c #C48A26",
"q. c #CD942D",
"w. c #DA9A2B",
"e. c #D5972B",
"r. c #C59538",
"t. c #D49C34",
"y. c #DA9E31",
"u. c #D49D3A",
"i. c #E39C24",
"p. c #E29E2A",
"a. c #DCA236",
"s. c #E4A22C",
"d. c #E9A52E",
"f. c #E5A326",
"g. c #E5A532",
"h. c #E9A732",
"j. c #E6A936",
"k. c #EBAA34",
"l. c #E5AC3B",
"z. c #EAAD3A",
"x. c #F1AF35",
"c. c #ECB13D",
"v. c #F5B43A",
"b. c #F9B73B",
"n. c #95854A",
"m. c #878757",
"M. c #968F58",
"N. c #AA934D",
"B. c #B49445",
"V. c #A79857",
"C. c #AB914A",
"Z. c #BDA85E",
"A. c #ABA567",
"S. c #B8AD68",
"D. c #BBB675",
"F. c #B9B16E",
"G. c #C49C46",
"H. c #C8A24B",
"J. c #D3A443",
"K. c #DAAB48",
"L. c #C8A854",
"P. c #D4AD52",
"I. c #DDB455",
"U. c #D8B459",
"Y. c #E3AD41",
"T. c #E8AD44",
"R. c #E7B142",
"E. c #EBB344",
"W. c #EBB54A",
"Q. c #ECB94D",
"!. c #F2BB4C",
"~. c #F9BE4A",
"^. c #F6B944",
"/. c #ECBC53",
"(. c #E5BC5B",
"). c #E6BB57",
"_. c #F2BE53",
"`. c #C4AE62",
"'. c #D6BC67",
"]. c #C7B86E",
"[. c #E0BC61",
"{. c #ECC25C",
"}. c #EBC159",
"|. c #F3C154",
" X c #F3C55B",
".X c #FDCA5C",
"XX c #FAC659",
"oX c #FBC14C",
"OX c #CDC379",
"+X c #D9C777",
"@X c #DCC36F",
"#X c #EDC563",
"$X c #EEC965",
"%X c #EDCB6B",
"&X c #E4C66C",
"*X c #F2CA64",
"=X c #FBCC63",
"-X c #F2CD6A",
";X c #F1C763",
":X c #F3D16E",
">X c #FDD56B",
",X c #FED668",
"<X c #E4CB73",
"1X c #EACD71",
"2X c #EED275",
"3X c #F3D473",
"4X c #FFDA73",
"5X c #F1D779",
"6X c #F4DA7C",
"7X c #FBDD7C",
"8X c #FDD773",
"9X c #FFE27D",
"0X c #DCD485",
"qX c #CCC881",
"wX c #F3DE82",
"eX c #F9DF82",
"rX c #E2D685",
"tX c #F5E185",
"yX c #FBE384",
"uX c #F5E58B",
"iX c #FCEA8E",
"pX c #FAE78A",
"aX c #F5EB94",
"sX c #FAEE94",
"dX c #F7F29C",
"fX c #FBF49C",
"gX c #FDF196",
"hX c #ECE48F",
"jX c #FDF9A2",
"kX c None",
/* pixels */
"kXkXkXkXkXkXkXkXkXkXkXkXkXkXkXkXkXkXkXkXkXkXkXkXkXkXkXkXsXsXfXfXjXjXjXfXkXkXkXkXkXkXkXkXkXkXkXkXkXkXkXkXkXkXkXkXkXkXkXkXkXkXkXkX",
"kXkXkXkXkXkXkXkXkXkXkXkXkXkXkXkXkXkXkXkXkXkXkX6X7X7X9X9X8X>X;X#X#X#X:X4X7XyXeXyXtXkXkXkXkXkXkXkXkXkXkXkXkXkXkXkXkXkXkXkXkXkXkXkX",
"kXkXkXkXkXkXkXkXkXkXkXkXkXkXkXkXkXkXkXkX3X:X4X,X(.r.@.] S m 8 7 7 8 n M J { :.Y.=X8X8X6XkXkXkXkXkXkXkXkXkXkXkXkXkXkXkXkXkXkXkXkX",
"kXkXkXkXkXkXkXkXkXkXkXkXkXkXkXkXkXkX%X>X>XI.,.I +   . & - ; , < < , , - - - .   S ..u..X>X3XkXkXkXkXkXkXkXkXkXkXkXkXkXkXkXkXkXkX",
"kXkXkXkXkXkXkXkXkXkXkXkXkXkXkXkX{.,X=XH.!   . & 5 s t t r 4 4 r r 4 4 r r t r 5 - &   S ;.!.=X$XkXkXkXkXkXkXkXkXkXkXkXkXkXkXkXkX",
"kXkXkXkXkXkXkXkXkXkXkXkXkXkXkX X>XH.Q   . 5 a r 4 r a t # . . . . . X 5 t t r 3 4 t 4 - . N -.~. XkXkXkXkXkXkXkXkXkXkXkXkXkXkXkX",
"kXkXkXkXkXkXkXkXkXkXkXkXkX/.,XU.+.  . a t 3 s p         . j V G G A e       & : t r 2 r t - & H q..X|.kXkXkXkXkXkXkXkXkXkXkXkXkX",
"kXkXkXkXkXkXkXkXkXkXkXkX/.,XZ.5   s r 2 s 4     v _ N.L.U.).#X{.{.{.).I.G.&.K 7   - 4 0 2 r t - .  .^._.kXkXkXkXkXkXkXkXkXkXkXkX",
"kXkXkXkXkXkXkXkXkXkXkX|.:X=.  = s # 4 r     ' L.'.{.|.|.|. X;X$X%X:X3X6X6X6X5XU.1.H   & r 4 2 r 2 - ] l.!.kXkXkXkXkXkXkXkXkXkXkX",
"kXkXkXkXkXkXkXkXkXkX.X<X^   f 4 2 f     m.'.#X/.E.W.Q./.}.{.#X$X%X2X3X5X6XtXuXiXsX6XP.]   - t # 2 t - S w.oXkXkXkXkXkXkXkXkXkXkX",
"kXkXkXkXkXkXkXkXkXXX<XR   f # 4 r   ) OX-XR.k.c.E.Q./.}.}.#X$X-X:X:X5X5X6XtXuXuXaXdXfXtXG.S   4 4 # a & B w.oXkXkXkXkXkXkXkXkXkX",
"kXkXkXkXkXkXkXkX!.2XR   f o s     A.2XE.s.l.R.E.Q.Q.|. X X*X$X%X%X2X6XyXyXpXuXaXaXsXdXfXsX%X .  ; r > t - B w.^.kXkXkXkXkXkXkXkX",
"kXkXkXkXkXkXkXc.6X)   f o s   y ].-X6.s.c.z.R.Q.|.Q.K.B.O.( Q Y Y ~ / n.S.+XaXgXfXdXfXaXaXaX6Xr.7 & t = t & Z k.R.kXkXkXkXkXkXkX",
"kXkXkXkXkXkXf.yXM.  h o a   D +X/.5.z.l.l.R.Q.Y.,.W                         ^ S.hXjXfXaXpXuXuX7XJ.e & 0 2 t & P b.z.kXkXkXkXkXkX",
"kXkXkXkXkXkX4XD.  b 2 4   D @XE.6.j.j.j.E.Y.&.z     % p r r 4 r 4 4 r p d %     l A.aXfXuXuXwX6X8XJ.m & 0 > a . #.b.kXkXkXkXkXkX",
"kXkXkXkXkXW.hXy O 4 4   u '.z.6.j.g.j.c.r.V     a r # # 2 2 2 2 2 # 2 2 # # p d     U OXsXwX6X6X5X8Xu.+ * 4 3 5 & t.z.kXkXkXkXkX",
"kXkXkXkX4.iXm.  d = r   L.E.6.s.g.j.z.$.    a 3 2 2 2 2 2 2 2 2 2 2 2 2 2 2 2 2 2 f     A.tX6X5X3X2X*X9.  r # r & P b.g.kXkXkXkX",
"kXkXkXkX.XqX  f 2 a   M.Q.7.s.g.g.l.X.  0 $ # 2 2 2 2 2 2 2 5 2 4 2 2 2 2 2 2 2 2 # r s   n.6X5X:X%X%X X|   q 2 t . :.v.kXkXkXkX",
"kXkXkX6.yX'   s 4   R ).6.p.g.h.l.X.  q # # 2 2 2 2 2 2 2 2 2 2 2 2 2 5 2 2 2 2 2 # # # f   =.5X:X%X#X*XT.N & $ 4 & L v.g.kXkXkX",
"kXkXkX_.OX  f # r   H.h.i.p.s.k.@.  q # # 2 2 2 3 2 5 2 2 2 2 3 2 5 2 2 2 2 5 4 2 2 # # # f   N.3X$X;X{. X9.  r 2 r & <.x.kXkXkX",
"kXkX4.8X`   s r   / E.6.s.p.k.0.  0 # 2 2 2 2 2 2 2 2 4 2 2 2 2 2 2 5 3 2 5 2 2 5 2 2 2 # # r   L.>X{.{.{.E.K . r r . ! b.s.kXkX",
"kXkXz.<X& 3 # r   H.d.i.s.g.s.V . 4 # 2 2 2 2 2 2 5 5 2 4 2 2 2 3 2 2 2 2 2 2 2 3 2 2 2 2 # r   C {.{.}./.|.q.  0 # 4 & a.g.kXkX",
"kXkX.XA.  d r   ~ R.2.s.p.k.@.  q 2 2 2 2 4 2 2 2 4 4 2 5 4 2 2 5 4 4 2 2 4 4 2 5 2 2 2 2 2 6 t   n.XX/.Q.Q.R.I . r a . &.b.kXkX",
"kX4.>X_   r p   ,.k.w.s.s.y.i . # 2 2 2 5 2 2 2 2 5 = = = = = = o = = = > > 2 2 2 2 2 4 2 2 2 2 X a ).|.Q.W.E.>.  r r . Q ^.i.kX",
"kXh.&Xy @ 5 # X a.f.p.p.k.@.  q # 2 2 2 4 2 2 2 2 2 f j f h h h b h h f a t = 2 2 2 2 2 2 2 2 2 a   ,.|.W.W.E.y.w = $ 2 > K.d.kX",
"kXE.`.  s 4   Q K.6.p.g.g.L . % 2 2 2 2 2 2 4 ; B 9.t.J.P.'.+X0X0X+X'.U.J.t.%.& r 2 5 2 2 4 2 2 %   W |.W.W.c.l.P . r t . 1.k.kX",
"kX~.V.  a t   O.k.i.s.h.q.  # # 2 2 2 2 2 2 4 & F w.kXkXkXkXkXkXkXkXkXkXkXkX0.& r 2 2 2 2 2 2 2 # %   J.|.l.l.x.o.. t s   ,.b.kX",
"kX.X*.  s 0   <.h.p.s.k.>.  0 2 2 2 2 3 2 2 4 & F w.kXkXkXkXkXkXkXkXkXkXkXkX;.& r 5 2 2 2 5 2 2 # p   ,.|.l.l.z.;.  0 r   +.~.kX",
"7..X^   r r   r.d.p.g.z.X.  0 2 2 2 2 5 4 2 4 & F w.kXkXkXkXkXkXkXkXkXkXkXkX;.& r 5 2 5 2 2 2 2 # p   X.Q.l.l.x.q.. 3 r . Q !.2.",
"6. XU   4 2 X t.f.s.g.j.P   0 2 2 2 2 2 2 2 4 & L w.kXkXkXkXkXkXkXkXkXkXkXkX;.& r 2 2 2 2 4 2 2 2 %   ! R.c.j.j.w.a . 4 . U _.i.",
"i._.c . 4 . a a.d.g.g.j.G . $ 2 2 2 2 2 5 2 4 & Z w.kXkXkXkXkXkXkXkXkXkXkXkX;.& r 5 2 4 2 5 2 2 # 4   G c.l.g.g.g.B . r & v /.i.",
"i._.v & r . j a.s.g.k.j.V . $ 2 2 2 2 5 2 4 r - Z w.kXkXkXkXkXkXkXkXkXkXkXkX0.& r 2 2 2 2 2 2 2 2 $ . V a.l.g.s.a.G . r . g /.f.",
"i./.v . 4 . j a.s.j.c.a.V . % 2 2 2 4 2 2 2 4 & L w.kXkXkXkXkXkXkXkXkXkXkXkX;.& r 2 2 2 2 5 2 2 2 2 . C j.j.g.s.g.C . % . x /.f.",
"i.Q.c . 4 X i y.k.j.l.l.F   % 2 2 5 2 2 3 2 r & Z w.kXkXkXkXkXkXkXkXkXkXkXkX;.& r 2 5 2 2 3 2 2 2 r . Z l.g.g.p.a.C . 4 . v  Xp.",
"i.!.Y . 4 $ . q.k.j.c.c.P   4 # 2 5 4 2 2 2 4 & Z w.kXkXkXkXkXkXkXkXkXkXkXkX;.& r 5 2 5 2 2 5 2 2 r . I k.g.d.p.u.d X r . U ;X6.",
"6.~.~   4 0   9.k.j.l.^.+.  0 2 2 2 2 2 2 2 4 & Z w.kXkXkXkXkXkXkXkXkXkXkXkX;.. r 2 2 2 3 2 3 2 2 r   X.k.g.p.p.r.. $ r   ~ .X7.",
"kX^.+.  r 0   %.c.l.c.E.<.  p # 2 2 2 2 2 2 4 & F w.kXkXkXkXkXkXkXkXkXkXkXkX;.& r 2 5 2 2 3 2 2 # 0   >.k.p.p.d.<.  r s   *..XkX",
"kXv.,.  t t . } z.l.c.Q.J.  $ # 2 2 2 5 2 2 4 - F y.kXkXkXkXkXkXkXkXkXkXkXkX0.& 4 4 2 2 2 2 2 2 # $   e.j.s.i.k.&.  t d   V.XXkX",
"kXk.G.. r 3 . Z j.c.R.Q.Q.W   % 2 2 2 2 3 2 4 ; B 0.u.J.U.'.+X0XrX+X'.P.J.y.#.. r 2 2 2 2 4 2 # $ . F s.s.f.i.z.!   r s   `.W.kX",
"kXs.Y.4 2 $ 5   q.E.R.Q.|.,.  i # 2 2 5 2 2 3 2 2 t k k v C c c c c c k k j 4 2 2 2 5 2 2 2 2 2 q   @.k.s.w.i.J.y o 3 2 < <Xh.kX",
"kXi.v.Q . r t    .E.W.Q.|.I.p . 2 2 2 2 2 2 2 3 4 2 - * & . & . . . & * - ; 3 2 2 2 4 2 2 2 2 # X w y.g.p.w.j.B.  t r   ) 8X4.kX",
"kXkXv.,.. t 4 & A l.Q.Q./. X,.  t # 2 2 2 2 2 2 2 2 4 4 4 4 4 4 4 4 4 3 4 4 3 2 2 2 2 2 2 2 # 0   o.k.s.p.2.W.!   4 f   A.=XkXkX",
"kXkXh.a.- 3 2 0   >.!./.}.{.}.Y   4 2 2 2 4 2 2 2 5 5 4 2 2 2 2 2 4 2 2 2 2 2 2 2 4 2 2 2 # $ . B a.h.p.i.d.L.  0 2 4 & <XE.kXkX",
"kXkXf.b.! . t $ & S l.}.|.}.*XL.  t # 2 2 2 2 2 2 2 2 2 5 2 5 2 2 2 2 2 2 3 5 2 5 2 2 2 # # 0   0.k.p.p.7.W./   r s   ` eX4.kXkX",
"kXkXkXx.9.& t 2 r   #.|.{. X#X:XC.  a # 2 2 2 2 2 2 2 2 2 3 3 5 2 5 2 4 5 2 2 2 2 2 2 2 # q   o.k.s.s.w.k.L.  r 2 f   OXXXkXkXkX",
"kXkXkXg.v.L . 4 % * e a. X#X$X:X3X=.  f 2 # 2 2 2 2 2 2 2 2 2 2 2 2 2 2 2 2 2 2 2 2 # # i   X.k.s.s.f.7.(.R   r y   ' iX6.kXkXkX",
"kXkXkXkXv.:.& t # 0 . K /.$X$X%X:X5Xn.  p r = 2 2 2 2 2 5 3 2 2 2 2 2 5 2 2 2 2 2 # $ 0   X.l.j.g.p.5./.M.  s 2 f   OX=XkXkXkXkX",
"kXkXkXkXg.b.P & p 6 i .  . X:X%X3X5X6XV.    d 2 # 2 2 2 2 2 2 2 2 5 2 2 2 2 2 2 2 t .   o.z.j.s.s.7.W.`.  t # s   m.yX6.kXkXkXkX",
"kXkXkXkXkXk.t.> 2 3 # 5   :.*X3X5X5XwXpX].U     f 4 2 2 2 # 2 2 5 # # 2 2 # % a X   B r.c.l.g.g.7.T.'.- O 5 5 # : <XQ.kXkXkXkXkX",
"kXkXkXkXkXkXb.#.& a 2 $ >   9.:X5X5XwXwXsXuXA.f     4 p s s 4 4 4 4 4 t p %     i O.Y.E.l.j.l.2.W.+Xx   4 2 h   F.8XkXkXkXkXkXkX",
"kXkXkXkXkXkXl.v.[ & t # % :   9.8XwXwXuXuXsXfXhXF.^                         G ,.K.^.E.l.z.g.5._.OXx   s # f   m.9Xg.kXkXkXkXkXkX",
"kXkXkXkXkXkXkXc.h.L & t 6 4 >    .-XuXuXuXaXdXfXjXdX+XS.n./ T Y G T ( O.B.P./.|.Q.R.R.z.s.f.2X].&   s o f   ^ 3XE.kXkXkXkXkXkXkX",
"kXkXkXkXkXkXkXkX^.w.C & a o $ 4   J I.yXdXaXdXdXdXaXsXiXyXwX5X2X1X%X$X*X X X/.W.W.R.l.f.W.1XM.  + s > f   U <X|.kXkXkXkXkXkXkXkX",
"kXkXkXkXkXkXkXkXkX^.w.C & a 2 $ t & 8 >.%XsXjXdXaXpXuXwXwX6X5X3X:X$X#X{.}./.Q.Q.c.l.Q.$X].E   s 5 6 f   U &X.XkXkXkXkXkXkXkXkXkX",
"kXkXkXkXkXkXkXkXkXkX~.w.Z - t 3 6 0 ,   M <.1XpXsXaXuXtX6X5X5X:X:X$X#X{./.Q.Q.Q.|.#X`._     d 2 $ a   R &X.XkXkXkXkXkXkXkXkXkXkX",
"kXkXkXkXkXkXkXkXkXkXkX!.g.] & 2 t 2 $ r -   n o.L.%X6X9X6X6X3X:X-X-X X X X X}.U.V.R     a 4 = s 3   +.:XXXkXkXkXkXkXkXkXkXkXkXkX",
"kXkXkXkXkXkXkXkXkXkXkXkX/.^. .. - t r 2 $ t ;     A } ,.G.P.I.I.I.I.P.H.B.n.T       p 4 # r d   & N.>X_.kXkXkXkXkXkXkXkXkXkXkXkX",
"kXkXkXkXkXkXkXkXkXkXkXkXkX/.oXe.H . - r r 2 $ r r &         + w w $           $ a 4 2 t s .   ! I.,X/.kXkXkXkXkXkXkXkXkXkXkXkXkX",
"kXkXkXkXkXkXkXkXkXkXkXkXkXkXkX X~.%.N . - r t r 2 $ t t t 4 2 * X > % p p p 4 3 r a y &   G G.,X*XkXkXkXkXkXkXkXkXkXkXkXkXkXkXkX",
"kXkXkXkXkXkXkXkXkXkXkXkXkXkXkXkX#X=X^.;.S   - - 4 t r r 0 5 4 r % % 4 4 0 t s 5 & .   P G.=X8X$XkXkXkXkXkXkXkXkXkXkXkXkXkXkXkXkX",
"kXkXkXkXkXkXkXkXkXkXkXkXkXkXkXkXkXkX-X=X.Xt.{ M   . - - - , < 1 1 1 , - - .     H o.P.,X4X:XkXkXkXkXkXkXkXkXkXkXkXkXkXkXkXkXkXkX",
"kXkXkXkXkXkXkXkXkXkXkXkXkXkXkXkXkXkXkXkX3X3X>X.XK.;.{ H M 9 7 + + 7 9 M J | 1.).>X9X6X3XkXkXkXkXkXkXkXkXkXkXkXkXkXkXkXkXkXkXkXkX",
"kXkXkXkXkXkXkXkXkXkXkXkXkXkXkXkXkXkXkXkXkXkXkXwX7X7X8X8X>X;X#X(.#X#X:X8X9XyXeXtXtXkXkXkXkXkXkXkXkXkXkXkXkXkXkXkXkXkXkXkXkXkXkXkX",
"kXkXkXkXkXkXkXkXkXkXkXkXkXkXkXkXkXkXkXkXkXkXkXkXkXkXkXkXsXsXgXfXjXjXfXfXkXkXkXkXkXkXkXkXkXkXkXkXkXkXkXkXkXkXkXkXkXkXkXkXkXkXkXkX"
};
