/* XPM */
static char *_524805108109[] = {
/* columns rows colors chars-per-pixel */
"16 16 177 2 ",
"   c black",
".  c #000004",
"X  c #000005",
"o  c #000006",
"O  c #000007",
"+  c #000008",
"@  c #00000C",
"#  c #00000D",
"$  c #170000",
"%  c #000010",
"&  c #000011",
"*  c #260000",
"=  c #28150A",
"-  c #2C180A",
";  c #251D14",
":  c #251E14",
">  c #261E14",
",  c #262016",
"<  c #2D2315",
"1  c #2E2215",
"2  c #2B2416",
"3  c #2C2517",
"4  c #2F2516",
"5  c #272519",
"6  c #282519",
"7  c #2B291B",
"8  c #2E2B1C",
"9  c #372916",
"0  c #342F1D",
"q  c #352F1D",
"w  c #35301E",
"e  c #36301E",
"r  c #2E2F20",
"t  c #373623",
"y  c #373E2A",
"u  c #432903",
"i  c #533103",
"p  c #52340B",
"a  c #54350A",
"s  c #54370E",
"d  c #473111",
"f  c #4B3411",
"g  c #493716",
"h  c #4B3816",
"j  c #4B3A18",
"k  c #4A3A19",
"l  c #49391A",
"z  c #4B3B1B",
"x  c #4E3D1C",
"c  c #503713",
"v  c #523A13",
"b  c #573F16",
"n  c #4C3E21",
"m  c #37412D",
"M  c #53411D",
"N  c #715019",
"B  c #75531A",
"V  c #76541A",
"C  c #7A571A",
"Z  c #7B581A",
"A  c #4D4222",
"S  c #4D4324",
"D  c #4E4527",
"F  c #4F4728",
"G  c #534220",
"H  c #554521",
"J  c #524B2E",
"K  c #5A4F2B",
"L  c #5D512F",
"P  c #5D532E",
"I  c #595232",
"U  c #5B5532",
"Y  c #5D5936",
"T  c #735B25",
"R  c #735D2B",
"E  c #7E6227",
"W  c #7D6228",
"Q  c #7C622A",
"!  c #7E642A",
"~  c #7C642D",
"^  c #7F652C",
"/  c #7E6630",
"(  c #825D1D",
")  c #88631E",
"_  c #89621F",
"`  c #A6761D",
"'  c #A7771E",
"]  c #896421",
"[  c #8B6521",
"{  c #8B6A2B",
"}  c #8C6A2B",
"|  c #93712F",
" . c #95722E",
".. c #836832",
"X. c #816936",
"o. c #897036",
"O. c #8F7638",
"+. c #957533",
"@. c #947536",
"#. c #A97E2D",
"$. c #A97E2E",
"%. c #847D4C",
"&. c #907E47",
"*. c #907F48",
"=. c #AA883F",
"-. c #C88E25",
";. c #C98E26",
":. c #CC922E",
">. c #CC932F",
",. c #CF9732",
"<. c #CD9B36",
"1. c #CD9B37",
"2. c #CC9A39",
"3. c #CC9A3A",
"4. c #D09833",
"5. c #D99F36",
"6. c #D9A138",
"7. c #E5A531",
"8. c #E7A530",
"9. c #E8A530",
"0. c #E6AA37",
"q. c #E7AB38",
"w. c #EFAF3B",
"e. c #EFAF3D",
"r. c #998349",
"t. c #99874D",
"y. c #9A884D",
"u. c #9A894F",
"i. c #868352",
"p. c #AA8842",
"a. c #AE924D",
"s. c #AE9551",
"d. c #AF9750",
"f. c #B09853",
"g. c #B19E57",
"h. c #B19F5B",
"j. c #CFA040",
"k. c #D3A443",
"l. c #D0A346",
"z. c #DBA945",
"x. c #D2A649",
"c. c #D1AA4E",
"v. c #DBAB49",
"b. c #D1AB50",
"n. c #D2A953",
"m. c #D0AA53",
"M. c #D2AB56",
"N. c #D1AD55",
"B. c #D6B058",
"V. c #D4B25C",
"C. c #D7B55D",
"Z. c #D6B65F",
"A. c #DDB758",
"S. c #DDB75B",
"D. c #EBB242",
"F. c #EDB444",
"G. c #F2B747",
"H. c #F1B748",
"J. c #EEBF55",
"K. c #E0B859",
"L. c #F0BF54",
"P. c #DEBB61",
"I. c #D8CB7C",
"U. c #EFC761",
"Y. c #EFC964",
"T. c #F7CE65",
"R. c #FAD36B",
"E. c #F2D372",
"W. c #F1D576",
"Q. c #DDD081",
"!. c #DAD284",
"~. c #DAD487",
"^. c #FBE080",
"/. c #F8E387",
"(. c #F7E68C",
"). c #FFE788",
"_. c None",
/* pixels */
"_._._._._.C.d.y.t.d.V._._._._._.",
"_._._.K.O.t H Q ~ v * } v._._._.",
"_._.N.P I x.L.U.E./.Q.K i 3._._.",
"_.P.Y ..G.<.! A F %.~.).o.p 6._.",
"_.&.M e.` + O + O     h.R.M ) _.",
"n.y :.;.@ : 3 q q 7 6   n.k.- 4.",
"=.z 8.Z % 1 ) _._.( , @ Q F.c #.",
"+.N 8.h % 9 _._._._.1 @ z q.V  .",
"| N 0.h % 9 _._._._.1 % z 7.V @.",
"#.d D.E @ 4 ) _._.( : @ C 8.z p.",
",.= k.c.  6 8 w w 2 > @ ;.>.m M.",
"_.[ f T.g.    O O O O ` e.G *._.",
"_.5.s / ^.~.i.D D / 1.H.X.U S._.",
"_._.2.a n I.(.W.Y.J.j.J K n._._.",
"_._._.z.} $ u R T z r O.S._._._.",
"_._._._._.B.a.r.y.f.C._._._._._."
};
